<svg width="358" height="358" viewBox="0 0 358 358" fill="none" xmlns="http://www.w3.org/2000/svg">
<path d="M283.35 175C283.3 197.22 277.38 219.53 266.14 238.51C253.33 260.15 234.55 277.45 210.64 285.95C184.38 295.29 153.33 295.6 127.31 285.27C109.48 278.19 93.95 265.8 82.26 250.59C60.3 222.01 49.96 182.56 58.65 147.22C69.86 101.67 112.09 68.8 158.02 64.75C160.11 64.57 162.21 64.44 164.3 64.36C202.16 63.03 241.59 78.04 263.71 109.69C277.08 128.79 283.4 151.85 283.35 175Z" fill="#613DE4"/>
<path d="M295.35 169C295.3 191.22 289.38 213.53 278.14 232.51C265.33 254.15 246.55 271.45 222.64 279.95C196.38 289.29 165.33 289.6 139.31 279.27C121.48 272.19 105.95 259.8 94.26 244.59C72.3 216.01 61.96 176.56 70.65 141.22C81.86 95.67 124.09 62.8 170.02 58.75C172.11 58.57 174.21 58.44 176.3 58.36C214.16 57.03 253.59 72.04 275.71 103.69C289.08 122.79 295.4 145.85 295.35 169Z" fill="#F5F7FC"/>
<path d="M293.85 169C293.75 194.63 285.87 219.96 270.93 240.84C257.7 259.34 239.2 273.41 217.39 280.12C193.37 287.5 166.64 287.55 142.9 279.04C120.21 270.91 101.41 254.26 88.6997 233.97C76.1697 213.97 68.9997 190.4 69.0797 166.76C69.1497 144.84 75.9497 123.61 88.8997 105.9C101.03 89.3101 118.04 76.2601 137.02 68.4301C157.23 60.0901 179.42 57.9501 200.97 61.3301C222.45 64.6901 243.35 73.4501 259.69 87.9701C277.82 104.1 288.86 126.69 292.5 150.53C293.44 156.63 293.85 162.82 293.85 169C293.85 170.93 296.85 170.93 296.85 169C296.86 143.5 289.19 117.84 273.16 97.7801C259.1 80.1801 239.05 68.1101 217.54 61.9101C195.89 55.6701 172.28 54.8601 150.46 60.7101C130 66.1901 111.02 77.2901 96.2997 92.5201C81.2097 108.12 70.8597 128.01 67.4797 149.5C63.6897 173.57 67.9697 198.48 78.0797 220.55C88.2097 242.67 104.55 262.13 125.74 274.35C148.07 287.22 174.86 290.82 200.15 287.08C212.4 285.27 224.49 281.7 235.5 275.99C245.67 270.72 254.88 263.64 262.79 255.37C280.24 237.11 291.5 213.36 295.32 188.45C296.31 182.01 296.82 175.51 296.85 169C296.86 167.07 293.86 167.06 293.85 169Z" fill="#111112"/>
<path d="M121.25 163.02C119.13 160.6 116.77 157.76 116.81 154.58C116.86 149.57 124.02 144.18 128.77 144.43C131.76 144.59 134.27 146.68 136.38 148.81C142.51 154.98 147.22 162.24 152.1 169.38C157.28 176.96 162.71 184.37 167.88 191.95C170.03 195.1 172.23 198.22 174.23 201.46C175.49 203.5 177.13 206.69 180.04 206.28C181.43 206.09 182.49 204.96 183.42 203.9C207.36 176.65 231.36 149.48 255.27 122.2C265.43 110.35 275.73 98.5899 286.07 86.9099C289.97 82.5099 293.94 78.1699 297.99 73.9099C301.21 70.5199 304.87 64.6999 310.02 64.5099C312.03 64.4399 313.89 65.5699 315.39 66.8899C317.34 68.6099 319.01 70.9599 318.92 73.5499C318.82 76.7599 316.27 79.0799 314.49 81.4999C312.22 84.5799 309.96 87.6599 307.6 90.6799C302.45 97.2699 297.19 103.76 291.92 110.25C270.16 137.06 247.8 163.55 224.38 188.96C217.7 196.2 210.58 203.5 203.66 210.69C200.06 214.42 196.48 218.17 192.95 221.96C189.89 225.25 186.79 230.15 182.73 232.26C175.8 235.86 169.49 224.44 165.98 220.11C154.09 205.42 143.57 189.74 131.51 175.16C128.53 171.56 125.53 167.99 122.49 164.44C122.1 163.98 121.68 163.51 121.25 163.02Z" fill="#613DE4"/>
<path d="M122.31 161.96C120.8 160.24 119.15 158.38 118.52 156.13C118.03 154.38 118.52 152.81 119.5 151.34C121.3 148.64 124.88 146.04 128.23 145.94C130.33 145.88 132.2 147.06 133.73 148.39C135.51 149.94 137.12 151.72 138.66 153.5C141.89 157.24 144.74 161.27 147.53 165.34C153.63 174.24 159.93 183.01 166.03 191.91C168.77 195.91 171.37 200 174.05 204.04C175.05 205.54 176.31 207.06 178.1 207.62C180.14 208.25 182.08 207.41 183.55 205.99C185.41 204.19 187.04 202.09 188.75 200.14C190.61 198.03 192.47 195.91 194.33 193.8C197.94 189.7 201.55 185.59 205.16 181.49C212.44 173.22 219.72 164.96 226.99 156.69C241.56 140.13 256.04 123.5 270.54 106.88C277.66 98.7202 284.76 90.5302 292.06 82.5302C295.29 78.9902 298.63 75.5602 301.75 71.9202C303.91 69.4102 307.05 65.5102 310.83 66.0702C312.92 66.3802 314.91 68.2002 316.12 69.8502C317.4 71.6002 317.87 73.6402 316.91 75.6602C316.01 77.5602 314.47 79.1002 313.22 80.7602C311.64 82.8602 310.1 84.9902 308.51 87.0902C301.95 95.7602 294.99 104.15 288.13 112.58C274.56 129.24 260.78 145.74 246.63 161.92C232.48 178.11 217.86 193.8 202.94 209.29C199.19 213.18 195.43 217.06 191.78 221.04C188.98 224.1 186.67 227.88 183.2 230.24C182 231.06 180.72 231.66 179.24 231.39C177.86 231.14 176.61 230.33 175.56 229.43C173 227.26 171.05 224.48 169.1 221.78C166.56 218.26 163.75 214.94 161.1 211.49C157.91 207.34 154.79 203.14 151.67 198.93C145.4 190.48 139.14 182.01 132.43 173.9C129.09 169.89 125.75 165.87 122.31 161.96C121.03 160.51 118.92 162.64 120.19 164.08C127.49 172.37 134.45 180.96 141.11 189.77C147.69 198.48 154.07 207.34 160.78 215.95C163.23 219.09 165.67 222.21 168.03 225.4C170.1 228.2 172.34 231.09 175.33 232.97C183.22 237.93 188.99 228.64 193.54 223.54C200.91 215.27 208.87 207.5 216.52 199.5C224.21 191.46 231.71 183.24 239.12 174.94C253.92 158.36 268.3 141.41 282.42 124.25C289.55 115.58 296.65 106.88 303.65 98.1102C307.11 93.7802 310.52 89.4102 313.82 84.9602C315.22 83.0702 316.7 81.2402 318.11 79.3502C319.38 77.6502 320.38 75.7302 320.45 73.5602C320.58 69.1002 316.45 64.6802 312.39 63.3602C308.4 62.0602 304.56 64.6002 301.87 67.3202C300.46 68.7402 299.21 70.3102 297.89 71.8202C296.18 73.7602 294.35 75.6002 292.59 77.5002C288.81 81.5802 285.12 85.7402 281.43 89.9202C266.37 106.97 251.54 124.23 236.52 141.31C221.43 158.47 206.32 175.61 191.22 192.77C189.36 194.88 187.5 197 185.64 199.11C184.77 200.11 183.89 201.1 183.02 202.1C182.27 202.96 181.45 204.18 180.36 204.64C178.55 205.41 177.21 203.4 176.39 202.1C175.07 200.03 173.79 197.94 172.41 195.91C166.16 186.66 159.56 177.65 153.27 168.43C150.37 164.19 147.52 159.9 144.39 155.82C141.44 151.98 138.27 147.88 134.3 145.02C130.79 142.48 126.88 142.45 123.1 144.37C119.83 146.03 116.59 148.99 115.59 152.62C114.36 157.05 117.46 160.94 120.19 164.06C121.46 165.53 123.57 163.41 122.31 161.96Z" fill="#111112"/>
<path d="M39.8887 98.2137C41.2875 96.4376 42.1097 94.2095 42.1417 91.8071C42.1666 89.7961 41.768 87.7567 40.9209 85.9272C39.9564 83.8486 38.3796 82.0904 36.3651 80.9834C36.148 80.8624 35.9273 80.7521 35.6995 80.6489C31.6242 78.7767 26.0398 79.2109 22.6585 82.2897C19.8823 84.8203 18.5191 88.8992 19.0566 92.5936C19.5833 96.1991 21.8292 99.2743 25.004 101.022C26.1038 101.627 27.3069 102.04 28.5419 102.257C30.4319 102.588 32.2898 102.353 34.137 101.905C36.4861 101.332 38.4793 100.004 39.8887 98.2137Z" fill="#111112"/>
<path d="M38.4649 98.2137C39.8637 96.4376 40.6859 94.2095 40.7179 91.8071C40.7428 89.7961 40.3442 87.7567 39.4971 85.9272C38.5325 83.8486 36.9558 82.0904 34.9413 80.9834C34.7241 80.8624 34.5035 80.7521 34.2757 80.6489C30.2004 78.7767 24.6159 79.2109 21.2347 82.2897C18.4585 84.8203 17.0953 88.8992 17.6327 92.5936C18.1595 96.1991 20.4054 99.2743 23.5802 101.022C24.68 101.627 25.883 102.04 27.1181 102.257C29.008 102.588 30.866 102.353 32.7132 101.905C35.0623 101.332 37.0554 100.004 38.4649 98.2137Z" fill="#F5F7FC"/>
<path d="M22.8933 91.9991C24.1853 93.0241 25.3706 94.1631 26.4419 95.4159C26.8512 95.8929 27.5488 95.2842 27.2819 94.7681C27.3459 94.8856 27.3637 95.003 27.3353 95.1276C27.2925 95.2202 27.2854 95.2415 27.3139 95.1881C27.3103 95.181 27.3637 95.1098 27.3708 95.0991C27.3673 95.1027 27.4741 94.971 27.5488 94.882C27.7837 94.608 28.0329 94.3481 28.282 94.0883C28.855 93.4904 29.4423 92.9102 30.0332 92.3301C31.7843 90.6038 33.4251 88.7602 35.0303 86.8987C35.4788 86.3826 34.7242 85.6209 34.2758 86.1441C32.5922 88.091 30.866 90.0059 29.033 91.8175C28.4066 92.4368 27.7802 93.0561 27.1822 93.7039C26.8298 94.0812 26.0504 94.7254 26.3565 95.3127C26.6376 95.0956 26.9153 94.882 27.1964 94.6649C26.1251 93.4121 24.9399 92.2696 23.6479 91.2481C23.114 90.821 22.3559 91.5719 22.8933 91.9991Z" fill="#111112"/>
<path d="M38.8422 98.5908C40.4652 96.5016 41.3051 93.9781 41.2482 91.33C41.1912 88.6464 40.4189 85.9164 38.8208 83.7382C37.3686 81.7592 35.3505 80.3249 33.0086 79.5988C30.7983 78.9119 28.3958 78.8229 26.1357 79.2963C23.9005 79.7661 21.797 80.8481 20.2381 82.5316C18.6151 84.2827 17.5473 86.55 17.1593 88.9062C16.387 93.6364 18.4656 98.3346 22.4626 100.976C24.8117 102.531 27.6448 103.186 30.4388 102.862C33.094 102.552 35.6139 101.705 37.6249 99.8935C38.0698 99.4913 38.472 99.0571 38.8422 98.5908C39.2657 98.0605 38.5147 97.2988 38.0876 97.8363C36.6354 99.6586 34.6707 100.89 32.4035 101.428C29.7661 102.054 27.054 102.065 24.5518 100.915C20.6047 99.1034 17.9602 95.0886 18.0527 90.7249C18.1452 86.4005 20.7079 82.2255 24.8651 80.7555C28.7838 79.371 33.6243 80.0081 36.6995 82.9231C40.6289 86.6496 41.4582 93.494 38.0876 97.8363C37.6712 98.3737 38.4222 99.1354 38.8422 98.5908Z" fill="#613DE4"/>
<path d="M196.144 29.5153C196.764 28.7282 197.128 27.7407 197.142 26.676C197.153 25.7848 196.977 24.8809 196.601 24.0701C196.174 23.1489 195.475 22.3697 194.582 21.8792C194.486 21.8255 194.388 21.7766 194.287 21.7309C192.481 20.9012 190.006 21.0936 188.508 22.4581C187.277 23.5796 186.673 25.3873 186.911 27.0246C187.145 28.6225 188.14 29.9853 189.547 30.7598C190.035 31.028 190.568 31.211 191.115 31.3072C191.953 31.4539 192.776 31.3498 193.595 31.151C194.636 30.8971 195.519 30.3087 196.144 29.5153Z" fill="#111112"/>
<path d="M195.513 29.5153C196.133 28.7282 196.497 27.7407 196.511 26.676C196.522 25.7848 196.346 24.8809 195.97 24.0701C195.543 23.1489 194.844 22.3697 193.951 21.8792C193.855 21.8255 193.757 21.7766 193.656 21.7309C191.85 20.9012 189.375 21.0936 187.877 22.4581C186.646 23.5796 186.042 25.3873 186.281 27.0246C186.514 28.6225 187.509 29.9853 188.916 30.7598C189.404 31.028 189.937 31.211 190.484 31.3072C191.322 31.4539 192.145 31.3498 192.964 31.151C194.005 30.8971 194.888 30.3087 195.513 29.5153Z" fill="#F5F7FC"/>
<path d="M188.612 26.7611C189.184 27.2154 189.71 27.7202 190.184 28.2754C190.366 28.4868 190.675 28.2171 190.557 27.9883C190.585 28.0404 190.593 28.0924 190.58 28.1476C190.561 28.1887 190.558 28.1981 190.571 28.1745C190.569 28.1713 190.593 28.1398 190.596 28.135C190.595 28.1366 190.642 28.0782 190.675 28.0388C190.779 27.9173 190.889 27.8022 191 27.687C191.254 27.422 191.514 27.1649 191.776 26.9078C192.552 26.1428 193.279 25.3257 193.991 24.5007C194.189 24.272 193.855 23.9344 193.656 24.1663C192.91 25.0291 192.145 25.8778 191.333 26.6807C191.055 26.9551 190.777 27.2296 190.512 27.5167C190.356 27.6839 190.011 27.9694 190.147 28.2297C190.271 28.1334 190.394 28.0388 190.519 27.9426C190.044 27.3873 189.519 26.881 188.946 26.4283C188.71 26.239 188.374 26.5718 188.612 26.7611Z" fill="#111112"/>
<path d="M195.68 29.6823C196.399 28.7564 196.772 27.638 196.746 26.4644C196.721 25.2751 196.379 24.0652 195.671 23.0999C195.027 22.2228 194.133 21.5872 193.095 21.2654C192.115 20.9609 191.05 20.9215 190.049 21.1313C189.058 21.3395 188.126 21.819 187.435 22.5651C186.716 23.3412 186.243 24.346 186.071 25.3902C185.728 27.4866 186.65 29.5687 188.421 30.7392C189.462 31.4285 190.718 31.7187 191.956 31.5752C193.133 31.438 194.249 31.0625 195.141 30.2596C195.338 30.0814 195.516 29.889 195.68 29.6823C195.868 29.4473 195.535 29.1097 195.346 29.3479C194.702 30.1555 193.831 30.7013 192.827 30.9395C191.658 31.2171 190.456 31.2218 189.347 30.7124C187.598 29.9095 186.426 28.1302 186.467 26.1963C186.508 24.2798 187.643 22.4295 189.486 21.778C191.222 21.1644 193.368 21.4468 194.73 22.7387C196.472 24.3902 196.839 27.4235 195.346 29.3479C195.161 29.5861 195.494 29.9237 195.68 29.6823Z" fill="#613DE4"/>
<path d="M281.153 280.398C282.201 279.067 282.817 277.398 282.841 275.597C282.86 274.09 282.561 272.562 281.926 271.191C281.204 269.633 280.022 268.316 278.512 267.486C278.35 267.395 278.184 267.313 278.014 267.235C274.96 265.832 270.775 266.158 268.241 268.465C266.16 270.361 265.139 273.418 265.541 276.187C265.936 278.889 267.619 281.193 269.998 282.503C270.823 282.956 271.724 283.266 272.65 283.428C274.066 283.677 275.458 283.501 276.843 283.164C278.603 282.735 280.097 281.74 281.153 280.398Z" fill="#111112"/>
<path d="M280.086 280.398C281.134 279.067 281.75 277.398 281.774 275.597C281.793 274.09 281.494 272.562 280.859 271.191C280.137 269.633 278.955 268.316 277.445 267.486C277.283 267.395 277.117 267.313 276.947 267.235C273.892 265.832 269.708 266.158 267.174 268.465C265.093 270.361 264.072 273.418 264.474 276.187C264.869 278.889 266.552 281.193 268.931 282.503C269.756 282.956 270.657 283.266 271.583 283.428C272.999 283.677 274.391 283.501 275.776 283.164C277.536 282.735 279.03 281.74 280.086 280.398Z" fill="#F5F7FC"/>
<path d="M268.416 275.742C269.385 276.51 270.273 277.363 271.076 278.302C271.382 278.66 271.905 278.204 271.705 277.817C271.753 277.905 271.766 277.993 271.745 278.086C271.713 278.156 271.708 278.172 271.729 278.132C271.726 278.126 271.766 278.073 271.772 278.065C271.769 278.068 271.849 277.969 271.905 277.902C272.081 277.697 272.268 277.502 272.455 277.307C272.884 276.859 273.324 276.424 273.767 275.99C275.079 274.696 276.309 273.314 277.512 271.919C277.848 271.533 277.282 270.962 276.946 271.354C275.685 272.813 274.391 274.248 273.017 275.606C272.548 276.07 272.078 276.534 271.63 277.019C271.366 277.302 270.782 277.785 271.012 278.225C271.222 278.062 271.43 277.902 271.641 277.739C270.838 276.801 269.95 275.944 268.982 275.179C268.582 274.859 268.014 275.422 268.416 275.742Z" fill="#111112"/>
<path d="M280.369 280.681C281.585 279.116 282.214 277.225 282.172 275.24C282.129 273.229 281.55 271.183 280.353 269.551C279.264 268.068 277.752 266.993 275.997 266.449C274.34 265.934 272.54 265.867 270.846 266.222C269.171 266.574 267.595 267.385 266.427 268.647C265.21 269.959 264.41 271.658 264.119 273.424C263.541 276.969 265.098 280.489 268.094 282.468C269.854 283.634 271.977 284.125 274.071 283.882C276.061 283.65 277.949 283.015 279.456 281.658C279.79 281.356 280.091 281.031 280.369 280.681C280.686 280.284 280.123 279.713 279.803 280.116C278.715 281.482 277.242 282.404 275.543 282.807C273.567 283.277 271.534 283.285 269.659 282.423C266.701 281.065 264.72 278.057 264.789 274.787C264.858 271.546 266.779 268.417 269.894 267.316C272.831 266.278 276.458 266.755 278.763 268.94C281.708 271.733 282.329 276.862 279.803 280.116C279.491 280.519 280.054 281.089 280.369 280.681Z" fill="#613DE4"/>
<path d="M309.568 36.5837C310.265 35.6978 310.675 34.5865 310.691 33.3881C310.704 32.385 310.505 31.3677 310.082 30.4552C309.601 29.4184 308.815 28.5414 307.81 27.9892C307.702 27.9289 307.592 27.8738 307.478 27.8224C305.445 26.8885 302.66 27.1051 300.973 28.6408C299.588 29.9031 298.908 31.9376 299.176 33.7804C299.439 35.5789 300.559 37.1128 302.143 37.9845C302.692 38.2863 303.292 38.4922 303.908 38.6005C304.85 38.7656 305.777 38.6485 306.699 38.4248C307.87 38.1389 308.865 37.4767 309.568 36.5837Z" fill="#111112"/>
<path d="M308.857 36.5837C309.555 35.6978 309.965 34.5865 309.981 33.3881C309.993 32.385 309.795 31.3677 309.372 30.4552C308.891 29.4184 308.104 28.5414 307.1 27.9892C306.991 27.9289 306.881 27.8738 306.768 27.8224C304.735 26.8885 301.949 27.1051 300.263 28.6408C298.878 29.9031 298.198 31.9376 298.466 33.7804C298.729 35.5789 299.849 37.1128 301.433 37.9845C301.981 38.2863 302.581 38.4922 303.197 38.6005C304.14 38.7656 305.067 38.6485 305.988 38.4248C307.16 38.1389 308.154 37.4767 308.857 36.5837Z" fill="#F5F7FC"/>
<path d="M301.09 33.4842C301.734 33.9956 302.326 34.5637 302.86 35.1886C303.064 35.4265 303.412 35.1229 303.279 34.8655C303.311 34.9241 303.32 34.9826 303.306 35.0448C303.284 35.0909 303.281 35.1016 303.295 35.075C303.293 35.0714 303.32 35.0359 303.323 35.0306C303.321 35.0324 303.375 34.9667 303.412 34.9223C303.529 34.7856 303.653 34.656 303.778 34.5264C304.064 34.2281 304.357 33.9387 304.651 33.6494C305.525 32.7883 306.343 31.8687 307.144 30.9402C307.368 30.6827 306.991 30.3028 306.767 30.5638C305.928 31.5349 305.067 32.4901 304.152 33.3937C303.84 33.7026 303.527 34.0115 303.229 34.3346C303.053 34.5228 302.665 34.8442 302.817 35.1371C302.958 35.0288 303.096 34.9223 303.236 34.814C302.702 34.1891 302.111 33.6192 301.466 33.1096C301.2 32.8966 300.822 33.2712 301.09 33.4842Z" fill="#111112"/>
<path d="M309.045 36.772C309.855 35.7298 310.274 34.4711 310.245 33.1502C310.217 31.8116 309.832 30.4499 309.035 29.3634C308.31 28.3763 307.304 27.6608 306.136 27.2987C305.033 26.956 303.835 26.9117 302.707 27.1478C301.592 27.3821 300.543 27.9218 299.766 28.7616C298.956 29.635 298.423 30.7659 298.23 31.9412C297.845 34.3007 298.881 36.6441 300.875 37.9614C302.047 38.7373 303.46 39.0639 304.854 38.9024C306.178 38.7479 307.435 38.3254 308.438 37.4217C308.66 37.2211 308.861 37.0045 309.045 36.772C309.257 36.5074 308.882 36.1275 308.669 36.3956C307.945 37.3046 306.965 37.9188 305.834 38.1869C304.518 38.4994 303.165 38.5047 301.917 37.9313C299.948 37.0276 298.629 35.025 298.675 32.8484C298.722 30.6914 300 28.6089 302.074 27.8757C304.028 27.1851 306.443 27.5028 307.977 28.9569C309.937 30.8157 310.35 34.2297 308.669 36.3956C308.461 36.6637 308.836 37.0436 309.045 36.772Z" fill="#613DE4"/>
<path d="M70.982 263.769C71.3292 263.328 71.5332 262.775 71.5412 262.179C71.5474 261.68 71.4484 261.174 71.2382 260.719C70.9988 260.204 70.6074 259.767 70.1074 259.492C70.0535 259.462 69.9987 259.435 69.9422 259.409C68.9307 258.945 67.5446 259.052 66.7054 259.817C66.0163 260.445 65.678 261.457 65.8114 262.374C65.9421 263.269 66.4995 264.032 67.2875 264.466C67.5605 264.616 67.8591 264.719 68.1657 264.773C68.6348 264.855 69.0959 264.796 69.5544 264.685C70.1374 264.543 70.6321 264.213 70.982 263.769Z" fill="#111112"/>
<path d="M70.6285 263.769C70.9756 263.328 71.1797 262.775 71.1877 262.179C71.1938 261.68 71.0949 261.174 70.8847 260.719C70.6453 260.204 70.2539 259.767 69.7539 259.492C69.7 259.462 69.6452 259.435 69.5887 259.409C68.5772 258.945 67.1911 259.052 66.3519 259.817C65.6628 260.445 65.3244 261.457 65.4578 262.374C65.5886 263.269 66.146 264.032 66.934 264.466C67.207 264.616 67.5056 264.719 67.8121 264.773C68.2812 264.855 68.7424 264.796 69.2009 264.685C69.7839 264.543 70.2786 264.213 70.6285 263.769Z" fill="#F5F7FC"/>
<path d="M66.7635 262.226C67.0841 262.481 67.3783 262.763 67.6442 263.074C67.7458 263.193 67.919 263.042 67.8527 262.914C67.8686 262.943 67.873 262.972 67.866 263.003C67.8554 263.026 67.8536 263.031 67.8607 263.018C67.8598 263.016 67.873 262.998 67.8748 262.996C67.8739 262.997 67.9004 262.964 67.919 262.942C67.9773 262.874 68.0391 262.809 68.101 262.745C68.2432 262.597 68.389 262.453 68.5356 262.309C68.9702 261.88 69.3775 261.422 69.7759 260.96C69.8872 260.832 69.6999 260.643 69.5886 260.773C69.1708 261.256 68.7423 261.732 68.2874 262.181C68.1319 262.335 67.9764 262.489 67.828 262.65C67.7405 262.743 67.5471 262.903 67.623 263.049C67.6928 262.995 67.7617 262.942 67.8315 262.888C67.5656 262.577 67.2714 262.293 66.9508 262.04C66.8182 261.934 66.6301 262.12 66.7635 262.226Z" fill="#111112"/>
<path d="M70.7221 263.863C71.1249 263.344 71.3334 262.718 71.3193 262.06C71.3051 261.394 71.1134 260.717 70.7168 260.176C70.3564 259.685 69.8555 259.329 69.2742 259.149C68.7256 258.978 68.1293 258.956 67.5683 259.074C67.0135 259.19 66.4914 259.459 66.1045 259.877C65.7016 260.311 65.4366 260.874 65.3403 261.459C65.1486 262.633 65.6645 263.799 66.6566 264.454C67.2397 264.84 67.9429 265.003 68.6363 264.923C69.2954 264.846 69.9208 264.636 70.42 264.186C70.5304 264.086 70.6302 263.978 70.7221 263.863C70.8272 263.731 70.6408 263.542 70.5348 263.675C70.1744 264.128 69.6867 264.433 69.124 264.567C68.4694 264.722 67.7962 264.725 67.1752 264.439C66.1955 263.99 65.5391 262.993 65.5621 261.91C65.585 260.837 66.2211 259.801 67.2529 259.436C68.2256 259.092 69.427 259.25 70.1903 259.974C71.1656 260.899 71.3714 262.597 70.5348 263.675C70.4314 263.809 70.6178 263.998 70.7221 263.863Z" fill="#613DE4"/>
<path d="M74.9912 24.8508C76.7043 23.3234 77.721 20.9418 77.4718 18.65C77.2908 16.9771 76.4954 15.4079 75.296 14.2349C73.6309 12.6054 71.2849 11.8811 69.0054 12.398C66.893 12.8777 65.019 14.2891 64.0348 16.2266C62.9546 18.3528 62.9345 20.8706 64.1276 22.952C64.5223 23.6391 65.1985 24.2504 65.8191 24.7301C66.469 25.2331 67.1964 25.6385 67.9686 25.9217C69.1617 26.3612 70.4601 26.5082 71.7228 26.3566C72.9485 26.2111 74.0673 25.6741 74.9912 24.8508Z" fill="#FACC15"/>
<path opacity="0.5" d="M74.0647 23.4663C75.4199 22.2495 76.1962 20.5721 75.9991 18.7463C75.8559 17.4137 75.323 16.1989 74.3742 15.2644C73.057 13.9663 71.0753 13.3589 69.2721 13.7707C67.6011 14.1528 66.1187 15.2771 65.3401 16.8206C64.4856 18.5144 64.6096 20.4928 65.5534 22.1509C65.8656 22.6982 66.2607 23.2125 66.7516 23.5947C67.2657 23.9953 67.8411 24.3183 68.4519 24.5439C69.3958 24.894 70.0482 24.9798 71.0471 24.859C72.0166 24.7431 73.3339 24.1221 74.0647 23.4663Z" fill="#FBFCFE"/>
<path d="M75.1551 25.0151C77.3619 23.0296 78.3337 19.8309 77.3309 17.0005C76.3312 14.1763 73.6664 12.0779 70.6379 12.002C67.8184 11.9324 65.0545 13.6532 63.8041 16.1679C63.1155 17.553 62.8509 19.119 63.0814 20.6495C63.196 21.4125 63.4436 22.1537 63.7995 22.8377C64.1663 23.5387 64.7048 24.1113 65.3068 24.6158C66.5742 25.6759 68.0691 26.3707 69.7125 26.5796C71.2802 26.7792 72.8942 26.5471 74.2467 25.6975C74.5686 25.4979 74.8704 25.2658 75.1551 25.0151C75.3795 24.817 75.0499 24.4889 74.8271 24.687C73.7159 25.6666 72.3526 26.1618 70.8763 26.1819C69.2901 26.2051 67.7302 25.747 66.4086 24.8696C65.7973 24.4626 65.2155 23.9751 64.7388 23.4149C64.2699 22.864 63.9558 22.18 63.7469 21.4914C63.329 20.1156 63.3801 18.6362 63.8413 17.2775C64.697 14.7566 67.0322 12.8361 69.6831 12.5112C72.5073 12.1661 75.2186 13.7662 76.5077 16.2592C77.1437 17.488 77.413 18.9039 77.2102 20.2781C77.0106 21.6322 76.4133 22.9306 75.525 23.972C75.3083 24.2258 75.0747 24.4626 74.8271 24.687C74.6042 24.8866 74.9338 25.2147 75.1551 25.0151Z" fill="#111112"/>
<path d="M71.3095 24.9561C73.524 24.5228 75.5992 22.7431 76.0665 20.4884C76.3079 19.3231 76.1671 18.0805 75.7168 16.9817C75.2634 15.8737 74.4633 14.9653 73.4311 14.3602C71.3172 13.1207 68.541 13.2166 66.6406 14.8183C65.7725 15.5487 65.1303 16.55 64.8099 17.6363C64.4463 18.8697 64.5546 20.1773 65.0513 21.3581C65.9334 23.4565 67.9576 25.0381 70.2819 25.052C70.627 25.0551 70.9706 25.018 71.3095 24.9561C71.4565 24.9298 71.3946 24.7054 71.2476 24.7317C68.9928 25.1449 66.8031 23.9688 65.6533 22.0359C65.0126 20.9588 64.6861 19.6744 64.8734 18.424C65.0328 17.35 65.5249 16.3271 66.2507 15.5209C67.0585 14.6218 68.1541 14.0167 69.3472 13.8109C70.4521 13.6205 71.6143 13.7815 72.6419 14.2194C73.6725 14.6589 74.5732 15.3878 75.1504 16.355C75.7354 17.3361 76.0062 18.5184 75.9427 19.6574C75.8793 20.8087 75.4243 21.8548 74.6707 22.723C73.9635 23.5385 73.0458 24.1777 72.0213 24.5259C71.7691 24.6125 71.5106 24.6791 71.2491 24.7301C71.1006 24.7611 71.1625 24.9855 71.3095 24.9561Z" fill="#111112"/>
<path d="M71.8141 16.2934C71.4613 16.0737 71.0357 16.0458 70.6303 16.0722C70.2233 16.0969 69.8101 16.1836 69.4573 16.3971C68.8089 16.7917 68.4498 17.6769 68.9373 18.3362C69.1772 18.6611 69.5362 18.8654 69.8813 19.0604C70.2852 19.2894 70.7015 19.4983 71.1054 19.7289C71.4288 19.9146 71.7894 20.1498 71.8946 20.5305C71.9967 20.905 71.8343 21.3012 71.5603 21.5596C70.8206 22.2591 69.5532 22.0347 68.6897 21.7283C68.4081 21.6277 68.2858 22.0765 68.5659 22.1755C69.3691 22.4603 70.3734 22.6228 71.1905 22.3133C71.9256 22.0347 72.5043 21.3414 72.3651 20.5197C72.2242 19.6887 71.3267 19.3204 70.6705 18.966C70.0887 18.6519 68.8847 18.1953 69.2329 17.3256C69.4047 16.8985 69.8194 16.6772 70.2481 16.5844C70.6643 16.4962 71.2029 16.4606 71.5774 16.6927C71.8343 16.8521 72.0679 16.4513 71.8141 16.2934Z" fill="#111112"/>
<path fill-rule="evenodd" clip-rule="evenodd" d="M70.5054 15.187C70.6336 15.187 70.7376 15.2909 70.7376 15.4191V16.2703H70.2733V15.4191C70.2733 15.2909 70.3772 15.187 70.5054 15.187Z" fill="#111112"/>
<path fill-rule="evenodd" clip-rule="evenodd" d="M70.5054 23.2339C70.3772 23.2339 70.2733 23.13 70.2733 23.0018L70.2733 22.1506L70.7375 22.1506L70.7375 23.0018C70.7375 23.13 70.6336 23.2339 70.5054 23.2339Z" fill="#111112"/>
<path d="M144.729 340.055C147.404 337.67 148.992 333.95 148.603 330.37C148.32 327.758 147.078 325.307 145.205 323.475C142.604 320.93 138.94 319.798 135.38 320.606C132.081 321.355 129.154 323.559 127.616 326.585C125.929 329.906 125.898 333.839 127.761 337.09C128.378 338.163 129.434 339.118 130.403 339.867C131.418 340.652 132.554 341.286 133.76 341.728C135.624 342.414 137.652 342.644 139.624 342.407C141.538 342.18 143.286 341.341 144.729 340.055Z" fill="#FACC15"/>
<path opacity="0.5" d="M143.282 337.892C145.398 335.992 146.611 333.372 146.303 330.52C146.079 328.439 145.247 326.542 143.765 325.082C141.708 323.055 138.613 322.106 135.796 322.749C133.187 323.346 130.871 325.102 129.655 327.513C128.32 330.158 128.514 333.248 129.988 335.838C130.476 336.693 131.093 337.496 131.86 338.093C132.663 338.719 133.561 339.223 134.515 339.575C135.99 340.122 137.008 340.256 138.569 340.068C140.083 339.887 142.14 338.917 143.282 337.892Z" fill="#FBFCFE"/>
<path d="M144.985 340.312C148.431 337.211 149.949 332.215 148.383 327.794C146.822 323.383 142.66 320.106 137.929 319.987C133.526 319.878 129.209 322.566 127.256 326.494C126.18 328.657 125.767 331.103 126.127 333.493C126.306 334.685 126.693 335.843 127.249 336.911C127.822 338.006 128.663 338.9 129.603 339.688C131.582 341.344 133.917 342.429 136.484 342.755C138.933 343.067 141.453 342.705 143.566 341.378C144.069 341.066 144.54 340.703 144.985 340.312C145.335 340.002 144.82 339.49 144.472 339.799C142.737 341.329 140.608 342.103 138.302 342.134C135.824 342.17 133.388 341.455 131.324 340.085C130.369 339.449 129.46 338.687 128.716 337.813C127.983 336.952 127.493 335.884 127.167 334.808C126.514 332.659 126.594 330.349 127.314 328.227C128.651 324.289 132.298 321.29 136.438 320.782C140.849 320.243 145.084 322.742 147.097 326.636C148.091 328.555 148.511 330.767 148.195 332.913C147.883 335.028 146.95 337.056 145.562 338.683C145.224 339.079 144.859 339.449 144.472 339.799C144.124 340.111 144.639 340.624 144.985 340.312Z" fill="#111112"/>
<path d="M138.978 340.22C142.437 339.543 145.678 336.763 146.408 333.242C146.785 331.422 146.565 329.481 145.862 327.765C145.154 326.034 143.904 324.615 142.292 323.67C138.99 321.734 134.654 321.884 131.686 324.386C130.33 325.527 129.327 327.09 128.827 328.787C128.259 330.714 128.428 332.756 129.204 334.6C130.582 337.878 133.743 340.348 137.373 340.37C137.912 340.374 138.449 340.316 138.978 340.22C139.208 340.179 139.111 339.828 138.882 339.869C135.36 340.515 131.94 338.678 130.144 335.659C129.144 333.977 128.634 331.97 128.926 330.017C129.175 328.34 129.944 326.742 131.077 325.483C132.339 324.079 134.05 323.134 135.914 322.812C137.639 322.515 139.455 322.766 141.059 323.45C142.669 324.137 144.076 325.275 144.977 326.786C145.891 328.318 146.314 330.165 146.215 331.944C146.116 333.742 145.405 335.376 144.228 336.732C143.124 338.006 141.69 339.004 140.09 339.548C139.696 339.683 139.293 339.787 138.884 339.867C138.652 339.915 138.749 340.266 138.978 340.22Z" fill="#111112"/>
<path d="M139.767 326.689C139.216 326.346 138.551 326.303 137.918 326.344C137.282 326.383 136.637 326.518 136.086 326.851C135.073 327.468 134.512 328.85 135.273 329.88C135.648 330.388 136.209 330.707 136.748 331.011C137.379 331.369 138.029 331.695 138.66 332.055C139.165 332.345 139.728 332.713 139.892 333.307C140.052 333.892 139.798 334.511 139.37 334.915C138.215 336.007 136.235 335.657 134.887 335.178C134.447 335.021 134.256 335.722 134.693 335.877C135.948 336.321 137.516 336.575 138.793 336.092C139.941 335.657 140.845 334.574 140.627 333.29C140.407 331.992 139.005 331.417 137.98 330.864C137.072 330.373 135.191 329.66 135.735 328.302C136.003 327.635 136.651 327.289 137.321 327.144C137.971 327.006 138.812 326.951 139.397 327.313C139.798 327.562 140.163 326.936 139.767 326.689Z" fill="#111112"/>
<path fill-rule="evenodd" clip-rule="evenodd" d="M137.723 324.961C137.923 324.961 138.085 325.124 138.085 325.324V326.653H137.36V325.324C137.36 325.124 137.523 324.961 137.723 324.961Z" fill="#111112"/>
<path fill-rule="evenodd" clip-rule="evenodd" d="M137.723 337.53C137.522 337.53 137.36 337.367 137.36 337.167L137.36 335.838L138.085 335.838L138.085 337.167C138.085 337.367 137.923 337.53 137.723 337.53Z" fill="#111112"/>
<path d="M320.328 326.838C321.375 325.904 321.997 324.449 321.844 323.048C321.734 322.026 321.248 321.067 320.515 320.35C319.497 319.354 318.063 318.911 316.67 319.227C315.379 319.52 314.234 320.383 313.632 321.567C312.972 322.866 312.96 324.405 313.689 325.677C313.93 326.097 314.343 326.471 314.723 326.764C315.12 327.071 315.564 327.319 316.036 327.492C316.766 327.761 317.559 327.851 318.331 327.758C319.08 327.669 319.764 327.341 320.328 326.838Z" fill="#FACC15"/>
<path opacity="0.5" d="M319.762 325.991C320.591 325.248 321.065 324.223 320.945 323.107C320.857 322.292 320.531 321.55 319.952 320.979C319.146 320.185 317.935 319.814 316.833 320.066C315.812 320.299 314.906 320.986 314.43 321.93C313.908 322.965 313.984 324.174 314.561 325.187C314.751 325.522 314.993 325.836 315.293 326.07C315.607 326.315 315.959 326.512 316.332 326.65C316.909 326.864 317.308 326.916 317.918 326.843C318.511 326.772 319.316 326.392 319.762 325.991Z" fill="#FBFCFE"/>
<path d="M320.429 326.938C321.778 325.725 322.371 323.77 321.759 322.04C321.148 320.314 319.519 319.031 317.668 318.985C315.945 318.943 314.256 319.994 313.491 321.531C313.071 322.378 312.909 323.335 313.05 324.27C313.12 324.736 313.271 325.189 313.489 325.608C313.713 326.036 314.042 326.386 314.41 326.694C315.184 327.342 316.098 327.767 317.102 327.894C318.061 328.016 319.047 327.875 319.874 327.355C320.07 327.233 320.255 327.091 320.429 326.938C320.566 326.817 320.364 326.617 320.228 326.738C319.549 327.336 318.716 327.639 317.814 327.651C316.844 327.666 315.891 327.386 315.083 326.849C314.71 326.601 314.354 326.303 314.063 325.96C313.776 325.624 313.584 325.206 313.456 324.785C313.201 323.944 313.232 323.04 313.514 322.209C314.037 320.669 315.464 319.495 317.085 319.296C318.811 319.085 320.468 320.063 321.255 321.587C321.644 322.338 321.809 323.203 321.685 324.043C321.563 324.871 321.198 325.664 320.655 326.301C320.522 326.456 320.38 326.601 320.228 326.738C320.092 326.86 320.294 327.06 320.429 326.938Z" fill="#111112"/>
<path d="M318.079 326.902C319.432 326.638 320.7 325.55 320.986 324.172C321.133 323.46 321.047 322.7 320.772 322.029C320.495 321.352 320.006 320.796 319.375 320.427C318.083 319.669 316.387 319.728 315.225 320.707C314.695 321.153 314.302 321.765 314.106 322.429C313.884 323.183 313.95 323.982 314.254 324.703C314.793 325.986 316.03 326.953 317.451 326.961C317.661 326.963 317.871 326.94 318.079 326.902C318.168 326.886 318.131 326.749 318.041 326.765C316.663 327.018 315.324 326.299 314.622 325.118C314.23 324.459 314.031 323.674 314.145 322.91C314.242 322.254 314.543 321.629 314.987 321.136C315.48 320.586 316.15 320.217 316.879 320.091C317.555 319.974 318.265 320.073 318.893 320.341C319.523 320.609 320.073 321.055 320.426 321.646C320.784 322.245 320.949 322.968 320.91 323.664C320.871 324.368 320.593 325.007 320.133 325.538C319.701 326.036 319.14 326.427 318.514 326.639C318.359 326.692 318.202 326.733 318.042 326.764C317.951 326.783 317.989 326.92 318.079 326.902Z" fill="#111112"/>
<path d="M318.387 321.608C318.171 321.474 317.911 321.457 317.663 321.473C317.415 321.488 317.162 321.541 316.946 321.671C316.55 321.913 316.331 322.454 316.629 322.856C316.775 323.055 316.995 323.18 317.206 323.299C317.452 323.439 317.707 323.567 317.954 323.708C318.151 323.821 318.372 323.965 318.436 324.198C318.498 324.426 318.399 324.669 318.232 324.827C317.78 325.254 317.005 325.117 316.477 324.93C316.305 324.868 316.23 325.142 316.402 325.203C316.892 325.377 317.506 325.476 318.006 325.287C318.455 325.117 318.809 324.693 318.724 324.191C318.637 323.683 318.089 323.458 317.688 323.241C317.332 323.049 316.596 322.77 316.809 322.239C316.914 321.978 317.168 321.843 317.43 321.786C317.684 321.732 318.013 321.71 318.242 321.852C318.399 321.949 318.542 321.704 318.387 321.608Z" fill="#111112"/>
<path fill-rule="evenodd" clip-rule="evenodd" d="M317.587 320.932C317.665 320.932 317.729 320.995 317.729 321.074V321.594H317.445V321.074C317.445 320.995 317.509 320.932 317.587 320.932Z" fill="#111112"/>
<path fill-rule="evenodd" clip-rule="evenodd" d="M317.587 325.85C317.509 325.85 317.445 325.786 317.445 325.708L317.445 325.188L317.729 325.188L317.729 325.708C317.729 325.786 317.665 325.85 317.587 325.85Z" fill="#111112"/>
<path d="M341.923 202.348C342.769 201.593 343.272 200.417 343.149 199.285C343.059 198.458 342.666 197.683 342.074 197.104C341.251 196.299 340.092 195.941 338.966 196.197C337.923 196.434 336.997 197.131 336.511 198.088C335.978 199.138 335.968 200.382 336.557 201.41C336.752 201.749 337.086 202.051 337.393 202.288C337.714 202.537 338.073 202.737 338.454 202.877C339.044 203.094 339.685 203.166 340.309 203.092C340.914 203.02 341.467 202.754 341.923 202.348Z" fill="#FACC15"/>
<path opacity="0.5" d="M341.466 201.664C342.135 201.063 342.519 200.234 342.421 199.332C342.35 198.674 342.087 198.074 341.619 197.612C340.968 196.971 339.989 196.671 339.098 196.875C338.273 197.063 337.541 197.619 337.156 198.381C336.734 199.218 336.795 200.195 337.261 201.014C337.416 201.284 337.611 201.538 337.853 201.727C338.107 201.925 338.391 202.085 338.693 202.196C339.159 202.369 339.482 202.411 339.975 202.352C340.454 202.295 341.105 201.988 341.466 201.664Z" fill="#FBFCFE"/>
<path d="M342.004 202.429C343.094 201.448 343.574 199.868 343.079 198.47C342.585 197.075 341.269 196.038 339.773 196.001C338.38 195.967 337.015 196.817 336.397 198.059C336.057 198.743 335.926 199.517 336.04 200.273C336.097 200.649 336.219 201.016 336.395 201.353C336.576 201.7 336.842 201.983 337.139 202.232C337.766 202.755 338.504 203.099 339.316 203.202C340.09 203.3 340.887 203.186 341.555 202.766C341.714 202.667 341.864 202.553 342.004 202.429C342.115 202.331 341.952 202.169 341.842 202.267C341.293 202.751 340.62 202.995 339.891 203.005C339.107 203.017 338.337 202.791 337.684 202.357C337.382 202.156 337.094 201.915 336.859 201.639C336.627 201.366 336.472 201.029 336.369 200.688C336.163 200.009 336.188 199.278 336.416 198.607C336.838 197.362 337.992 196.413 339.301 196.252C340.696 196.082 342.036 196.872 342.672 198.104C342.986 198.711 343.119 199.41 343.019 200.089C342.921 200.758 342.626 201.399 342.187 201.914C342.08 202.039 341.964 202.156 341.842 202.267C341.732 202.366 341.895 202.528 342.004 202.429Z" fill="#111112"/>
<path d="M340.105 202.4C341.198 202.186 342.223 201.307 342.454 200.193C342.574 199.617 342.504 199.003 342.282 198.461C342.058 197.913 341.662 197.465 341.153 197.166C340.108 196.553 338.737 196.601 337.798 197.392C337.369 197.753 337.052 198.247 336.894 198.784C336.714 199.393 336.768 200.039 337.013 200.622C337.449 201.659 338.449 202.44 339.597 202.447C339.767 202.449 339.937 202.43 340.105 202.4C340.177 202.387 340.147 202.276 340.074 202.289C338.96 202.493 337.879 201.912 337.311 200.957C336.994 200.425 336.833 199.791 336.925 199.173C337.004 198.643 337.247 198.137 337.606 197.739C338.005 197.295 338.546 196.996 339.135 196.894C339.681 196.8 340.255 196.88 340.763 197.096C341.272 197.313 341.717 197.673 342.002 198.151C342.291 198.636 342.425 199.22 342.393 199.782C342.362 200.351 342.137 200.868 341.765 201.297C341.416 201.699 340.962 202.015 340.456 202.187C340.332 202.23 340.204 202.263 340.075 202.288C340.001 202.303 340.032 202.414 340.105 202.4Z" fill="#111112"/>
<path d="M340.354 198.121C340.18 198.012 339.969 197.998 339.769 198.011C339.568 198.024 339.364 198.066 339.19 198.172C338.869 198.367 338.692 198.804 338.933 199.13C339.051 199.29 339.229 199.391 339.399 199.487C339.599 199.601 339.804 199.704 340.004 199.818C340.164 199.909 340.342 200.026 340.394 200.214C340.444 200.399 340.364 200.594 340.228 200.722C339.863 201.067 339.237 200.957 338.81 200.805C338.671 200.756 338.611 200.977 338.749 201.026C339.146 201.167 339.642 201.247 340.046 201.094C340.409 200.957 340.695 200.614 340.626 200.208C340.556 199.798 340.113 199.616 339.789 199.441C339.502 199.286 338.907 199.06 339.079 198.631C339.164 198.42 339.369 198.31 339.58 198.264C339.786 198.221 340.052 198.203 340.237 198.318C340.364 198.397 340.479 198.199 340.354 198.121Z" fill="#111112"/>
<path fill-rule="evenodd" clip-rule="evenodd" d="M339.707 197.574C339.771 197.574 339.822 197.626 339.822 197.689V198.109H339.593V197.689C339.593 197.626 339.644 197.574 339.707 197.574Z" fill="#111112"/>
<path fill-rule="evenodd" clip-rule="evenodd" d="M339.707 201.549C339.644 201.549 339.593 201.498 339.593 201.435L339.593 201.014L339.822 201.014L339.822 201.435C339.822 201.498 339.771 201.549 339.707 201.549Z" fill="#111112"/>
<path d="M286.923 74.3478C287.769 73.5933 288.272 72.4169 288.148 71.2848C288.059 70.4584 287.666 69.6833 287.074 69.1039C286.251 68.299 285.092 67.9412 283.966 68.1965C282.923 68.4335 281.997 69.1307 281.511 70.0877C280.978 71.138 280.968 72.3817 281.557 73.4098C281.752 73.7492 282.086 74.0512 282.392 74.2882C282.713 74.5366 283.073 74.7369 283.454 74.8768C284.044 75.0938 284.685 75.1665 285.309 75.0916C285.914 75.0197 286.467 74.7544 286.923 74.3478Z" fill="#FACC15"/>
<path opacity="0.5" d="M286.465 73.6638C287.135 73.0628 287.518 72.2342 287.421 71.3324C287.35 70.6741 287.087 70.074 286.618 69.6124C285.967 68.9712 284.989 68.6712 284.098 68.8746C283.272 69.0633 282.54 69.6187 282.156 70.3811C281.733 71.2178 281.795 72.195 282.261 73.0141C282.415 73.2844 282.61 73.5385 282.853 73.7272C283.107 73.9251 283.391 74.0847 283.693 74.1961C284.159 74.3691 284.481 74.4115 284.975 74.3518C285.453 74.2945 286.104 73.9878 286.465 73.6638Z" fill="#FBFCFE"/>
<path d="M287.004 74.429C288.094 73.4482 288.574 71.8682 288.079 70.4701C287.585 69.075 286.269 68.0385 284.773 68.001C283.38 67.9666 282.015 68.8166 281.397 70.0588C281.057 70.743 280.926 71.5165 281.04 72.2726C281.097 72.6494 281.219 73.0156 281.395 73.3534C281.576 73.6997 281.842 73.9825 282.139 74.2317C282.766 74.7554 283.504 75.0986 284.316 75.2018C285.09 75.3004 285.887 75.1857 286.555 74.7661C286.714 74.6675 286.864 74.5528 287.004 74.429C287.115 74.3311 286.952 74.1691 286.842 74.2669C286.293 74.7508 285.62 74.9954 284.891 75.0053C284.107 75.0168 283.337 74.7905 282.684 74.3571C282.382 74.1561 282.094 73.9153 281.859 73.6386C281.627 73.3664 281.472 73.0286 281.369 72.6884C281.163 72.0088 281.188 71.278 281.416 70.6069C281.838 69.3617 282.992 68.413 284.301 68.2525C285.696 68.082 287.036 68.8724 287.672 70.1039C287.986 70.7109 288.119 71.4103 288.019 72.0891C287.921 72.758 287.626 73.3993 287.187 73.9137C287.08 74.0391 286.964 74.1561 286.842 74.2669C286.732 74.3655 286.895 74.5276 287.004 74.429Z" fill="#111112"/>
<path d="M285.104 74.3997C286.198 74.1856 287.223 73.3066 287.454 72.1928C287.573 71.6172 287.504 71.0034 287.281 70.4607C287.058 69.9133 286.662 69.4646 286.152 69.1657C285.108 68.5534 283.737 68.6008 282.798 69.392C282.369 69.7528 282.052 70.2474 281.894 70.784C281.714 71.3932 281.768 72.0392 282.013 72.6224C282.449 73.659 283.449 74.4402 284.597 74.4471C284.767 74.4486 284.937 74.4303 285.104 74.3997C285.177 74.3867 285.146 74.2758 285.074 74.2888C283.96 74.4929 282.878 73.912 282.31 72.9572C281.994 72.4252 281.833 71.7907 281.925 71.1731C282.004 70.6426 282.247 70.1373 282.606 69.739C283.005 69.2949 283.546 68.996 284.135 68.8944C284.681 68.8003 285.255 68.8798 285.763 69.0962C286.272 69.3133 286.717 69.6733 287.002 70.1511C287.291 70.6357 287.424 71.2197 287.393 71.7823C287.362 72.351 287.137 72.8678 286.765 73.2966C286.415 73.6995 285.962 74.0152 285.456 74.1872C285.331 74.23 285.204 74.2628 285.075 74.2881C285.001 74.3034 285.032 74.4142 285.104 74.3997Z" fill="#111112"/>
<path d="M285.354 70.1207C285.179 70.0121 284.969 69.9984 284.769 70.0114C284.568 70.0236 284.364 70.0664 284.19 70.1719C283.869 70.3668 283.692 70.8041 283.933 71.1297C284.051 71.2902 284.229 71.3911 284.399 71.4875C284.598 71.6006 284.804 71.7038 285.004 71.8177C285.163 71.9094 285.341 72.0256 285.393 72.2136C285.444 72.3986 285.364 72.5943 285.228 72.722C284.863 73.0675 284.237 72.9567 283.81 72.8053C283.671 72.7556 283.611 72.9773 283.749 73.0262C284.146 73.1669 284.642 73.2471 285.046 73.0942C285.409 72.9567 285.695 72.6142 285.626 72.2083C285.556 71.7978 285.113 71.6159 284.789 71.4408C284.501 71.2856 283.907 71.0601 284.079 70.6305C284.164 70.4196 284.368 70.3103 284.58 70.2644C284.786 70.2208 285.052 70.2032 285.237 70.3179C285.364 70.3966 285.479 70.1987 285.354 70.1207Z" fill="#111112"/>
<path fill-rule="evenodd" clip-rule="evenodd" d="M284.708 69.5742C284.771 69.5742 284.822 69.6256 284.822 69.6889V70.1093H284.593V69.6889C284.593 69.6256 284.644 69.5742 284.708 69.5742Z" fill="#111112"/>
<path fill-rule="evenodd" clip-rule="evenodd" d="M284.707 73.5493C284.644 73.5493 284.593 73.498 284.593 73.4347L284.593 73.0142L284.822 73.0142L284.822 73.4347C284.822 73.498 284.771 73.5493 284.707 73.5493Z" fill="#111112"/>
<path d="M22.4769 164.87C23.2593 164.172 23.7237 163.084 23.6099 162.038C23.5272 161.274 23.1639 160.557 22.6161 160.021C21.8556 159.277 20.784 158.946 19.7429 159.182C18.7781 159.401 17.9222 160.046 17.4726 160.931C16.9793 161.902 16.9701 163.052 17.515 164.003C17.6953 164.316 18.0042 164.596 18.2876 164.815C18.5844 165.044 18.9166 165.23 19.2693 165.359C19.8143 165.56 20.4073 165.627 20.9841 165.558C21.5439 165.491 22.0549 165.246 22.4769 164.87Z" fill="#FACC15"/>
<path opacity="0.5" d="M22.0538 164.237C22.6727 163.681 23.0273 162.915 22.9373 162.081C22.8719 161.473 22.6285 160.918 22.1951 160.491C21.5935 159.898 20.6884 159.621 19.8648 159.809C19.1016 159.983 18.4245 160.497 18.0689 161.202C17.6786 161.975 17.7352 162.879 18.1663 163.636C18.3089 163.886 18.4893 164.121 18.7136 164.296C18.9484 164.479 19.2112 164.626 19.4902 164.729C19.9213 164.889 20.2192 164.928 20.6755 164.873C21.1183 164.82 21.72 164.537 22.0538 164.237Z" fill="#FBFCFE"/>
<path d="M22.5517 164.945C23.5597 164.038 24.0035 162.577 23.5455 161.284C23.0889 159.994 21.8718 159.036 20.4886 159.001C19.2008 158.969 17.9384 159.755 17.3673 160.904C17.0527 161.536 16.9319 162.252 17.0372 162.951C17.0895 163.299 17.2026 163.638 17.3652 163.95C17.5327 164.27 17.7786 164.532 18.0536 164.762C18.6325 165.246 19.3153 165.564 20.0659 165.659C20.7819 165.75 21.5191 165.644 22.1369 165.256C22.2839 165.165 22.4217 165.059 22.5517 164.945C22.6542 164.854 22.5037 164.704 22.4019 164.795C21.8944 165.242 21.2717 165.468 20.5974 165.477C19.8729 165.488 19.1605 165.279 18.5568 164.878C18.2777 164.692 18.0119 164.47 17.7942 164.214C17.58 163.962 17.4365 163.65 17.3411 163.335C17.1503 162.707 17.1736 162.031 17.3842 161.41C17.7751 160.259 18.8417 159.382 20.0525 159.233C21.3424 159.076 22.5807 159.807 23.1695 160.945C23.46 161.507 23.583 162.153 23.4904 162.781C23.3992 163.399 23.1264 163.992 22.7207 164.468C22.6217 164.584 22.515 164.692 22.4019 164.795C22.3001 164.886 22.4507 165.036 22.5517 164.945Z" fill="#111112"/>
<path d="M20.7953 164.918C21.8067 164.72 22.7546 163.907 22.968 162.877C23.0783 162.345 23.014 161.777 22.8083 161.275C22.6012 160.769 22.2358 160.354 21.7643 160.078C20.7988 159.512 19.5308 159.556 18.6628 160.287C18.2663 160.621 17.973 161.078 17.8267 161.574C17.6606 162.138 17.7101 162.735 17.9369 163.274C18.3398 164.233 19.2643 164.955 20.326 164.961C20.4836 164.963 20.6405 164.946 20.7953 164.918C20.8624 164.906 20.8342 164.803 20.767 164.815C19.7372 165.004 18.7371 164.467 18.2119 163.584C17.9193 163.092 17.7701 162.505 17.8557 161.934C17.9285 161.444 18.1532 160.976 18.4847 160.608C18.8537 160.198 19.3541 159.921 19.8991 159.827C20.4037 159.74 20.9345 159.814 21.4039 160.014C21.8746 160.214 22.286 160.547 22.5496 160.989C22.8168 161.437 22.9405 161.977 22.9115 162.497C22.8825 163.023 22.6747 163.501 22.3305 163.898C22.0075 164.27 21.5883 164.562 21.1204 164.721C21.0052 164.761 20.8872 164.791 20.7677 164.814C20.6999 164.829 20.7281 164.931 20.7953 164.918Z" fill="#111112"/>
<path d="M21.0257 160.961C20.8646 160.86 20.6702 160.848 20.485 160.86C20.2991 160.871 20.1104 160.911 19.9493 161.008C19.6531 161.188 19.4891 161.593 19.7118 161.894C19.8213 162.042 19.9853 162.135 20.1429 162.225C20.3274 162.329 20.5175 162.425 20.702 162.53C20.8498 162.615 21.0144 162.722 21.0625 162.896C21.1092 163.067 21.0349 163.248 20.9098 163.366C20.572 163.686 19.9931 163.583 19.5987 163.443C19.4701 163.397 19.4142 163.602 19.5421 163.647C19.909 163.777 20.3677 163.852 20.7409 163.71C21.0766 163.583 21.341 163.266 21.2774 162.891C21.2131 162.512 20.8031 162.343 20.5034 162.181C20.2377 162.038 19.6878 161.829 19.8468 161.432C19.9252 161.237 20.1147 161.136 20.3105 161.094C20.5006 161.053 20.7466 161.037 20.9176 161.143C21.0349 161.216 21.1417 161.033 21.0257 160.961Z" fill="#111112"/>
<path fill-rule="evenodd" clip-rule="evenodd" d="M20.428 160.456C20.4866 160.456 20.5341 160.503 20.5341 160.562V160.95H20.322V160.562C20.322 160.503 20.3695 160.456 20.428 160.456Z" fill="#111112"/>
<path fill-rule="evenodd" clip-rule="evenodd" d="M20.4279 164.131C20.3694 164.131 20.3219 164.083 20.3219 164.025L20.3219 163.636L20.5339 163.636L20.5339 164.025C20.5339 164.083 20.4865 164.131 20.4279 164.131Z" fill="#111112"/>
</svg>
